<svg width="71" height="48" viewBox="0 0 71 48" fill="none" xmlns="http://www.w3.org/2000/svg">
<path d="M70.5734 0.987457H0.421814V40.0695H70.5734V0.987457Z" fill="#E30613"/>
<path d="M35.0608 24.896H34.2252V26.9291C34.0353 26.9668 33.8454 26.9668 33.6175 26.9668C33.3896 26.9668 33.1617 26.9668 33.0098 26.9291V20.792L33.0857 20.7543C33.5795 20.7543 33.9973 20.7167 34.3391 20.7167C34.681 20.7167 34.9089 20.7167 35.0988 20.7167C35.7445 20.7167 36.2762 20.9049 36.656 21.2438C37.0358 21.5827 37.2637 22.1098 37.2637 22.7875C37.2637 23.1264 37.2257 23.4276 37.1118 23.6911C36.9978 23.9547 36.8459 24.1806 36.656 24.3312C36.4661 24.5194 36.2382 24.6324 35.9723 24.7454C35.6685 24.8207 35.3646 24.896 35.0608 24.896ZM34.2252 21.658V23.9547C34.4531 23.9547 34.681 23.9547 34.8329 23.9547C34.9848 23.9547 35.1367 23.9547 35.2507 23.917C35.3646 23.8794 35.4786 23.8417 35.5545 23.8041C35.6305 23.7288 35.7065 23.6535 35.7824 23.5405C35.8584 23.4276 35.8964 23.3146 35.9344 23.2017C35.9723 23.0887 35.9723 22.9381 35.9723 22.8251C35.9723 22.6745 35.9723 22.5616 35.9344 22.411C35.8964 22.2604 35.8584 22.1474 35.7824 22.0345C35.7065 21.9215 35.6305 21.8462 35.4786 21.7709C35.3646 21.6956 35.2127 21.658 35.0228 21.658H34.567C34.4151 21.658 34.3011 21.658 34.2252 21.658Z" fill="#FFED00"/>
<path d="M41.0238 22.8252C41.4416 23.2393 41.6695 23.8794 41.6695 24.6701C41.6695 25.0466 41.6315 25.3478 41.5175 25.649C41.4416 25.9502 41.2897 26.1762 41.1377 26.4021C40.9478 26.5903 40.7579 26.7786 40.4921 26.8915C40.2262 27.0045 39.9603 27.0421 39.6185 27.0421C39.3147 27.0421 39.0108 27.0045 38.745 26.8915C38.4791 26.7786 38.2892 26.628 38.0993 26.4021C37.9094 26.2138 37.7955 25.9502 37.7195 25.649C37.6435 25.3478 37.5676 25.0466 37.5676 24.6701C37.5676 23.9547 37.7575 23.3523 38.0993 22.9381C38.4411 22.524 38.9349 22.2981 39.6185 22.2981C40.2262 22.3357 40.682 22.4863 41.0238 22.8252ZM39.6565 23.2017C39.1248 23.2017 38.8589 23.6912 38.8589 24.6701C38.8589 25.649 39.1248 26.1385 39.6565 26.1385C40.1882 26.1385 40.4541 25.649 40.4541 24.6701C40.4541 23.6912 40.1882 23.2017 39.6565 23.2017Z" fill="#FFED00"/>
<path d="M42.2393 26.6279C42.2393 26.4773 42.2772 26.3644 42.3532 26.1761C42.4292 26.0255 42.5051 25.8749 42.5811 25.7996C43.0748 26.0632 43.4926 26.1761 43.8345 26.1761C44.0244 26.1761 44.2143 26.1385 44.3282 26.0632C44.4422 25.9879 44.5181 25.8749 44.5181 25.762C44.5181 25.5361 44.3662 25.3854 44.0244 25.2725L43.5306 25.0842C42.771 24.8207 42.3912 24.3689 42.3912 23.7664C42.3912 23.5405 42.4292 23.3523 42.5051 23.164C42.5811 22.9758 42.695 22.8628 42.847 22.7122C42.9989 22.5992 43.1888 22.4863 43.3787 22.411C43.5686 22.3357 43.8345 22.298 44.0623 22.298C44.1763 22.298 44.2902 22.298 44.4421 22.3357C44.5941 22.3357 44.746 22.3733 44.8599 22.411C45.0119 22.4486 45.1638 22.4863 45.2777 22.5239C45.4297 22.5616 45.5436 22.5993 45.6196 22.6746C45.6196 22.8252 45.5816 22.9758 45.5436 23.1264C45.4676 23.277 45.3917 23.4276 45.3157 23.5029C44.822 23.277 44.4042 23.2017 44.0623 23.2017C43.9104 23.2017 43.7965 23.2393 43.6825 23.3146C43.6066 23.3899 43.5306 23.5029 43.5306 23.6158C43.5306 23.8041 43.6825 23.9547 43.9864 24.0677L44.5561 24.2559C44.9739 24.4065 45.2398 24.5948 45.4676 24.8207C45.6575 25.0466 45.7715 25.3478 45.7715 25.649C45.7715 26.0632 45.6196 26.402 45.2777 26.6656C44.9739 26.9292 44.4801 27.0421 43.8724 27.0421C43.3407 27.0798 42.771 26.9292 42.2393 26.6279ZM43.1888 20.2272L44.0244 21.0179L44.9359 20.1519C45.1638 20.2272 45.3537 20.4155 45.4676 20.6037L44.4801 21.8462C44.3282 21.8839 44.1763 21.9215 43.9864 21.9215C43.7965 21.9215 43.6445 21.8839 43.4926 21.8462L42.6191 20.7167C42.657 20.6037 42.733 20.4908 42.847 20.4155C42.9609 20.3402 43.0748 20.2649 43.1888 20.2272Z" fill="#FFED00"/>
<path d="M49.1139 22.4486C49.1519 22.5993 49.1519 22.7499 49.1519 22.8628C49.1519 23.0134 49.1519 23.1264 49.1139 23.277H48.0125V25.649C48.0125 25.9126 48.1264 26.0632 48.3923 26.0632H48.962C49.038 26.2514 49.038 26.402 49.038 26.5903C49.038 26.7409 49.038 26.8538 49 26.8915C48.6202 26.9291 48.2783 26.9668 47.8985 26.9668C47.1769 26.9668 46.797 26.5903 46.797 25.8749V23.277H46.1134C46.0754 23.164 46.0754 23.0134 46.0754 22.8628C46.0754 22.7122 46.0754 22.5616 46.1134 22.4486H46.797V21.8086C46.797 21.545 46.835 21.3568 46.949 21.2438C47.0629 21.1308 47.2148 21.0932 47.4427 21.0932H47.8985L47.9745 21.1309V22.4486H49.1139Z" fill="#FFED00"/>
<path d="M53.026 22.8252C53.4438 23.2393 53.6717 23.8794 53.6717 24.6701C53.6717 25.0466 53.6337 25.3478 53.5197 25.649C53.4438 25.9502 53.2919 26.1762 53.1399 26.4021C52.95 26.5903 52.7601 26.7786 52.4942 26.8915C52.2284 27.0045 51.9625 27.0421 51.6207 27.0421C51.3168 27.0421 51.0129 27.0045 50.7471 26.8915C50.4812 26.7786 50.2913 26.628 50.1014 26.4021C49.9115 26.2138 49.7975 25.9502 49.7216 25.649C49.6456 25.3478 49.5696 25.0466 49.5696 24.6701C49.5696 23.9547 49.7596 23.3523 50.1014 22.9381C50.4432 22.524 50.937 22.2981 51.6207 22.2981C52.2284 22.3357 52.6841 22.4863 53.026 22.8252ZM51.6586 23.2017C51.1269 23.2017 50.861 23.6912 50.861 24.6701C50.861 25.649 51.1269 26.1385 51.6586 26.1385C52.1904 26.1385 52.4563 25.649 52.4563 24.6701C52.4563 23.6912 52.1904 23.2017 51.6586 23.2017Z" fill="#FFED00"/>
<path d="M56.1783 26.0255L57.1279 22.4487C57.2418 22.411 57.3938 22.411 57.6216 22.411C57.8116 22.411 58.0015 22.4487 58.1914 22.4863L58.2294 22.524C57.6217 24.5948 57.2039 26.0255 56.9 26.8915C56.6341 26.9292 56.3683 26.9292 56.0644 26.9292C55.7985 26.9292 55.5706 26.8915 55.4567 26.8162C55.3427 26.7409 55.2288 26.5903 55.1528 26.3267L53.9754 22.4863C54.2033 22.3734 54.4312 22.2981 54.6591 22.2981C55.0009 22.2981 55.2288 22.4863 55.3427 22.8252L55.8365 24.6701C55.9125 24.896 55.9884 25.2725 56.1024 25.8749C56.1024 25.9879 56.1404 26.0255 56.1783 26.0255Z" fill="#FFED00"/>
<path d="M62.6352 23.9171V25.8749C62.6352 26.2515 62.7112 26.5527 62.8251 26.7409C62.6352 26.8915 62.4073 27.0045 62.1415 27.0045C61.8756 27.0045 61.6857 26.9292 61.6097 26.8162C61.4958 26.7033 61.4578 26.515 61.4578 26.2515V24.143C61.4578 23.8794 61.4198 23.6912 61.3438 23.5782C61.2679 23.4653 61.1539 23.4276 60.964 23.4276C60.6602 23.4276 60.3563 23.5782 60.0525 23.8794V26.9668C59.9765 26.9668 59.8626 27.0045 59.7486 27.0045C59.6347 27.0045 59.5587 27.0045 59.4448 27.0045C59.3308 27.0045 59.2549 27.0045 59.1409 27.0045C59.027 27.0045 58.951 27.0045 58.8371 26.9668V22.4487L58.8751 22.3734H59.3308C59.6727 22.3734 59.9006 22.5616 59.9765 22.9005C60.4323 22.524 60.8501 22.3357 61.3059 22.3357C61.7616 22.3357 62.0655 22.4863 62.2934 22.7499C62.5213 23.0134 62.6352 23.4276 62.6352 23.9171Z" fill="#FFED00"/>
<path d="M65.2179 23.3523V26.9292C65.028 26.9668 64.8381 26.9668 64.6482 26.9668C64.4203 26.9668 64.2304 26.9668 64.0405 26.9292V23.7665C64.0405 23.4276 63.8886 23.277 63.6227 23.277H63.5087C63.4708 23.1264 63.4708 23.0135 63.4708 22.8629C63.4708 22.7123 63.4708 22.5993 63.5087 22.4487C63.8126 22.411 64.0405 22.411 64.1924 22.411H64.3443C64.6102 22.411 64.8381 22.4863 64.99 22.6746C65.142 22.8252 65.2179 23.0511 65.2179 23.3523ZM63.6607 21.5827L65.028 20.1143C65.1799 20.152 65.3319 20.2649 65.4838 20.3779C65.6357 20.5285 65.7497 20.6791 65.7877 20.8297L64.1544 22.0722C63.9265 21.9969 63.7366 21.8086 63.6607 21.5827Z" fill="#FFED00"/>
<path d="M26.439 34.9113C26.439 34.7606 26.477 34.6477 26.553 34.4594C26.6289 34.3088 26.7049 34.1582 26.7809 34.0829C27.2746 34.3465 27.6924 34.4594 28.0342 34.4594C28.2241 34.4594 28.414 34.4218 28.528 34.3465C28.6419 34.2712 28.7179 34.1582 28.7179 34.0453C28.7179 33.8194 28.566 33.6688 28.2241 33.5558L27.7304 33.3676C26.9708 33.104 26.5909 32.6522 26.5909 32.0498C26.5909 31.8239 26.6289 31.6356 26.7049 31.485C26.7809 31.2967 26.8948 31.1838 27.0467 31.0332C27.1986 30.9202 27.3885 30.8073 27.5785 30.732C27.7684 30.6567 28.0342 30.619 28.2621 30.619C28.3761 30.619 28.49 30.619 28.6419 30.6567C28.7938 30.6567 28.9458 30.6943 29.0597 30.732C29.2116 30.7696 29.3636 30.8073 29.4775 30.8449C29.6294 30.8826 29.7434 30.9202 29.8193 30.9955C29.8193 31.1461 29.7813 31.2967 29.7434 31.4473C29.6674 31.598 29.5914 31.7486 29.5155 31.8239C29.0217 31.598 28.6039 31.5226 28.2621 31.5226C28.1102 31.5226 27.9962 31.5603 27.8823 31.6356C27.8063 31.7109 27.7304 31.8239 27.7304 31.9368C27.7304 32.1251 27.8823 32.2757 28.1861 32.3886L28.7559 32.5769C29.1737 32.7275 29.4395 32.9157 29.6674 33.1416C29.8573 33.3676 29.9712 33.6688 29.9712 33.97C29.9712 34.3841 29.8193 34.723 29.4775 34.9866C29.1357 35.2501 28.6799 35.3631 28.0722 35.3631C27.5025 35.3631 26.9328 35.2125 26.439 34.9113Z" fill="#FFED00"/>
<path d="M32.9338 35.3254C32.6299 35.3254 32.2881 35.2501 31.9842 35.0995V36.4926C31.9842 36.7562 31.9463 36.9444 31.8323 37.0574C31.7184 37.1703 31.5664 37.208 31.3385 37.208H30.8828L30.8448 37.1327V30.7696L30.8828 30.6943H31.2246C31.5285 30.6943 31.7563 30.8449 31.9083 31.1461C32.2501 30.8073 32.6679 30.619 33.1617 30.619C33.6554 30.619 34.0352 30.8449 34.3011 31.2591C34.567 31.6733 34.7189 32.238 34.7189 32.9911C34.7189 33.3676 34.6809 33.6688 34.567 33.97C34.453 34.2712 34.3391 34.4971 34.1872 34.723C34.0352 34.9113 33.8453 35.0619 33.6174 35.1748C33.4275 35.2878 33.1997 35.3254 32.9338 35.3254ZM32.8578 31.598C32.516 31.598 32.2501 31.7486 32.0222 32.0498V34.1582C32.2881 34.3465 32.516 34.4218 32.7439 34.4218C33.0097 34.4218 33.1997 34.3088 33.3136 34.0453C33.4655 33.7817 33.5035 33.4429 33.5035 32.9534C33.5035 32.5016 33.4275 32.1251 33.3136 31.8992C33.1997 31.7109 33.0477 31.598 32.8578 31.598Z" fill="#FFED00"/>
<path d="M38.8588 31.1461C39.2766 31.5603 39.5045 32.2004 39.5045 32.991C39.5045 33.3676 39.4665 33.6688 39.3526 33.97C39.2766 34.2712 39.1247 34.4971 38.9728 34.723C38.7829 34.9113 38.593 35.0995 38.3271 35.2125C38.0612 35.3254 37.7954 35.3631 37.4535 35.3631C37.1497 35.3631 36.8459 35.3254 36.58 35.2125C36.3141 35.0995 36.1242 34.9489 35.9343 34.723C35.7444 34.5347 35.6305 34.2712 35.5545 33.97C35.4785 33.6688 35.4026 33.3676 35.4026 32.991C35.4026 32.2757 35.5925 31.6733 35.9343 31.2591C36.2761 30.8449 36.7699 30.619 37.4535 30.619C38.0233 30.619 38.479 30.8073 38.8588 31.1461ZM37.4535 31.5226C36.9218 31.5226 36.6559 32.0121 36.6559 32.991C36.6559 33.97 36.9218 34.4594 37.4535 34.4594C37.9853 34.4594 38.2511 33.97 38.2511 32.991C38.2511 32.0121 37.9853 31.5226 37.4535 31.5226Z" fill="#FFED00"/>
<path d="M40.1882 31.2967C40.2262 31.1837 40.2642 31.0708 40.3402 30.9578C40.4161 30.8449 40.4921 30.7319 40.5681 30.6943C41.0618 30.7696 41.4037 31.0331 41.5936 31.5226C41.8215 30.9955 42.2013 30.7319 42.733 30.7319C42.9229 30.7319 43.1129 30.7696 43.2648 30.8072C43.2648 31.2214 43.1508 31.5979 42.9609 31.8991C42.885 31.8615 42.733 31.8615 42.5431 31.8238C42.2013 31.8238 41.8974 32.0121 41.6695 32.3886V35.2877C41.4796 35.3254 41.2897 35.3254 41.0998 35.3254C40.8719 35.3254 40.682 35.3254 40.4921 35.2877V32.2756C40.5301 31.8238 40.4161 31.4849 40.1882 31.2967ZM40.8339 28.5481L41.6695 29.3388L42.5811 28.4728C42.809 28.5481 42.9989 28.7364 43.1129 28.9247L42.1253 30.1671C41.9734 30.2048 41.8215 30.2424 41.6316 30.2424C41.4416 30.2424 41.2897 30.2048 41.1378 30.1671L40.2642 29.0376C40.3022 28.9247 40.3781 28.8117 40.4921 28.7364C40.644 28.6611 40.758 28.5858 40.8339 28.5481Z" fill="#FFED00"/>
<path d="M45.5057 31.6732V35.2501C45.4297 35.2501 45.3157 35.2878 45.2018 35.2878C45.0879 35.2878 45.0119 35.2878 44.8979 35.2878C44.784 35.2878 44.708 35.2878 44.5941 35.2878C44.4801 35.2878 44.4042 35.2877 44.2902 35.2501V32.0874C44.2902 31.7485 44.1383 31.5979 43.8724 31.5979H43.7585C43.7205 31.4473 43.7205 31.3344 43.7205 31.1838C43.7205 31.0331 43.7205 30.9202 43.7585 30.7696C43.9104 30.7696 44.0244 30.7319 44.1383 30.7319C44.2523 30.7319 44.3662 30.7319 44.4422 30.7319H44.5941C44.86 30.7319 45.0879 30.8072 45.2398 30.9955C45.4297 31.1461 45.5057 31.372 45.5057 31.6732ZM44.1003 29C44.2523 28.9247 44.4422 28.887 44.708 28.887C44.86 28.887 44.9739 28.887 45.0879 28.9247C45.1638 28.9623 45.2398 28.9623 45.2778 29C45.3157 29.0376 45.3537 29.1129 45.3537 29.1882C45.3537 29.2635 45.3537 29.3765 45.3537 29.4518C45.3537 29.753 45.3157 29.9413 45.2398 29.9413C45.1638 29.9789 44.9739 30.0166 44.6701 30.0166C44.3282 30.0166 44.1383 29.9413 44.0624 29.866C43.9864 29.7907 43.9864 29.6401 43.9864 29.4141C44.0244 29.3012 44.0624 29.1506 44.1003 29Z" fill="#FFED00"/>
<path d="M49.1139 30.7319C49.1519 30.8825 49.1519 31.0331 49.1519 31.1461C49.1519 31.2967 49.1519 31.4096 49.1139 31.5602H48.0125V33.9323C48.0125 34.1958 48.1264 34.3464 48.3923 34.3464H48.962C49.038 34.5347 49.038 34.6853 49.038 34.8735C49.038 35.0241 49.038 35.1371 49 35.1748C48.6202 35.2124 48.2783 35.2501 47.8985 35.2501C47.1769 35.2501 46.797 34.8735 46.797 34.1582V31.5602H46.1134C46.0754 31.4473 46.0754 31.2967 46.0754 31.1461C46.0754 30.9955 46.0754 30.8449 46.1134 30.7319H46.797V30.0918C46.797 29.8283 46.835 29.64 46.949 29.5271C47.0629 29.4141 47.2148 29.3765 47.4427 29.3765H47.8985L47.9745 29.4141V30.7319H49.1139Z" fill="#FFED00"/>
<path d="M53.3678 33.3676H50.861C50.861 33.7064 50.975 33.97 51.0889 34.1582C51.2408 34.3465 51.4687 34.4594 51.8106 34.4594C52.1524 34.4594 52.5702 34.3465 53.0259 34.1582C53.2158 34.3465 53.3298 34.5724 53.3678 34.8736C52.874 35.2125 52.3043 35.4007 51.6206 35.4007C50.975 35.4007 50.4812 35.2125 50.1394 34.7983C49.7976 34.4218 49.6456 33.8194 49.6456 33.0287C49.6456 32.6522 49.6836 32.351 49.7596 32.0498C49.8355 31.7486 49.9875 31.5226 50.1394 31.2967C50.2913 31.0708 50.5192 30.9202 50.7471 30.8073C50.975 30.6943 51.2408 30.619 51.5447 30.619C51.8485 30.619 52.1144 30.6567 52.3803 30.7696C52.6082 30.8449 52.836 30.9955 52.988 31.1838C53.1399 31.372 53.2918 31.5603 53.3678 31.7862C53.4437 32.0121 53.4817 32.2757 53.4817 32.5392C53.4817 32.6898 53.4817 32.8404 53.4437 32.9534C53.4058 33.104 53.4058 33.2546 53.3678 33.3676ZM51.6206 31.485C51.1649 31.485 50.899 31.8239 50.861 32.5392H52.3803V32.4263C52.3803 32.1251 52.3043 31.8992 52.1904 31.7486C52.0384 31.5603 51.8485 31.485 51.6206 31.485Z" fill="#FFED00"/>
<path d="M55.9885 34.3841H56.2543C56.3303 34.5347 56.3683 34.723 56.3683 34.8736C56.3683 35.0242 56.3683 35.1372 56.3303 35.2125C55.9505 35.2501 55.6466 35.2878 55.4567 35.2878C55.1149 35.2878 54.849 35.2125 54.6971 35.0242C54.5452 34.836 54.4692 34.5724 54.4692 34.1959V28.6612L54.5452 28.5858H55.001C55.2288 28.5858 55.4187 28.6235 55.4947 28.7365C55.6087 28.8494 55.6466 29.0377 55.6466 29.3012V33.9323C55.6086 34.2335 55.7606 34.3841 55.9885 34.3841Z" fill="#FFED00"/>
<path d="M61.002 32.238V34.1959C61.002 34.5724 61.078 34.8736 61.192 35.0619C61.002 35.2125 60.7742 35.3254 60.4703 35.3254C60.2044 35.3254 60.0145 35.2501 59.9386 35.1372C59.8246 35.0242 59.7866 34.836 59.7866 34.5724V32.4639C59.7866 32.2004 59.7486 32.0121 59.6727 31.8992C59.5967 31.7862 59.4828 31.7486 59.2929 31.7486C58.989 31.7486 58.6852 31.8992 58.3813 32.2004V35.2878C58.3053 35.2878 58.1914 35.3254 58.0775 35.3254C57.9635 35.3254 57.8875 35.3254 57.7736 35.3254C57.6597 35.3254 57.5837 35.3254 57.4697 35.3254C57.3558 35.3254 57.2798 35.3254 57.1659 35.2878V30.7696L57.2039 30.6943H57.6597C58.0015 30.6943 58.2294 30.8826 58.3053 31.2214C58.7611 30.8449 59.1789 30.6567 59.6347 30.6567C60.0905 30.6567 60.3943 30.8073 60.6222 31.0708C60.8881 31.3721 61.002 31.7486 61.002 32.238Z" fill="#FFED00"/>
<path d="M65.9017 34.6854C65.8637 34.7983 65.8257 34.9113 65.7498 35.0242C65.6738 35.1372 65.5978 35.2501 65.5219 35.2878C65.1421 35.2501 64.8382 35.0619 64.6483 34.7607C64.2685 35.1372 63.8127 35.3254 63.3569 35.3254C63.129 35.3254 62.9011 35.2878 62.7492 35.2125C62.5593 35.1372 62.4074 35.0242 62.2934 34.9113C62.1795 34.7983 62.1035 34.6477 62.0276 34.4595C61.9516 34.3088 61.9516 34.1206 61.9516 33.97C61.9516 33.7064 61.9896 33.4805 62.0655 33.2923C62.1415 33.104 62.2934 32.9534 62.4454 32.8028C62.5973 32.6898 62.7872 32.5769 63.0151 32.5016C63.243 32.4263 63.4709 32.3886 63.7367 32.3886C64.0786 32.3886 64.3065 32.3886 64.4964 32.4263V32.2757C64.4964 31.8239 64.2685 31.598 63.8127 31.598C63.5088 31.598 63.0531 31.7109 62.4074 31.8992C62.2555 31.7109 62.1415 31.4474 62.1035 31.0708C62.7492 30.8073 63.4329 30.6567 64.1166 30.6567C64.5723 30.6567 64.9522 30.7696 65.256 31.0332C65.5599 31.2967 65.7118 31.6733 65.7118 32.2004V34.0453C65.6358 34.3465 65.7498 34.5724 65.9017 34.6854ZM63.6228 34.4595C63.9266 34.4595 64.2305 34.3088 64.4964 34.0453V33.2546C64.3824 33.2546 64.3065 33.2546 64.2305 33.2546C64.1545 33.2546 64.0406 33.2546 63.9646 33.2546C63.6988 33.2546 63.5088 33.2923 63.3569 33.4052C63.205 33.5182 63.129 33.6688 63.129 33.8947C63.129 34.0829 63.167 34.2335 63.281 34.3088C63.3189 34.4218 63.4329 34.4595 63.6228 34.4595Z" fill="#FFED00"/>
<path d="M15.1585 18.1564C15.1585 18.1564 14.8926 18.4576 14.209 18.5329C12.2719 18.7588 11.2844 18.9471 10.107 19.3989C8.81559 19.8884 7.22037 20.7543 7.06845 21.6203C6.80258 23.277 9.4233 23.0134 10.6387 24.2559C11.7022 25.3855 10.9805 27.3057 12.5378 27.3057C13.6392 27.3057 14.5128 26.2514 14.9306 25.2349C15.3104 24.2183 15.3484 23.5405 15.4623 22.2228C15.5763 20.9803 15.7282 19.8131 16.0321 18.9847C16.26 18.3823 16.2979 18.3447 16.4119 18.1941C16.6398 17.8552 17.0196 17.7799 17.0196 17.7799C17.0196 17.7799 17.2095 18.0435 17.0955 18.4576C16.6398 20.1143 16.7537 22.8628 16.6778 24.9336C16.6018 27.0421 15.5763 29.4518 12.8416 29.7907C11.7781 29.9036 10.4868 29.64 9.87907 28.2846C9.27137 26.8915 8.20789 25.7243 6.9545 25.0466C5.89102 24.4818 4.7136 23.4276 4.94149 21.658C5.20736 19.6248 7.75211 18.3447 9.38532 18.0435C11.5503 17.6293 12.8796 17.7423 13.8671 17.7423C14.8167 17.7799 15.1585 18.1564 15.1585 18.1564Z" fill="#FFED00"/>
<path d="M18.159 19.7378C18.159 19.7378 18.4629 20.0013 18.5388 20.6791C18.7667 22.5993 18.9566 23.5782 19.4124 24.7454C19.9062 26.0255 20.7798 27.6069 21.6533 27.7575C23.3245 28.021 23.0586 25.4231 24.312 24.2183C25.4515 23.164 27.3885 23.8794 27.3885 22.3357C27.3885 21.2438 26.325 20.3778 25.2995 19.9637C24.274 19.5872 23.5904 19.5495 22.261 19.4366C21.0076 19.3236 19.8302 19.173 18.9946 18.8718C18.3869 18.6459 18.3489 18.6082 18.197 18.4953C17.8552 18.2694 17.7792 17.8929 17.7792 17.8929C17.7792 17.8929 18.0451 17.7046 18.4629 17.8176C20.1341 18.2694 22.9067 18.1564 24.9957 18.2317C27.1227 18.307 29.5535 19.3236 29.8953 22.0345C30.0092 23.0887 29.7434 24.3689 28.376 24.9713C26.9707 25.5737 25.7933 26.628 25.1096 27.8704C24.5399 28.9247 23.4764 30.0919 21.6913 29.866C19.6403 29.6024 18.3489 27.0798 18.0451 25.4608C17.6653 23.2393 17.7412 21.9592 17.7792 20.9803C17.7792 20.1143 18.159 19.7378 18.159 19.7378Z" fill="#FFED00"/>
<path d="M16.7916 15.2196C16.7916 15.2196 16.4878 14.9561 16.4118 14.2783C16.1839 12.3581 15.994 11.3792 15.5383 10.212C15.0445 8.93187 14.1709 7.35052 13.2974 7.19992C11.6262 6.93636 11.892 9.53429 10.6387 10.7391C9.49923 11.7934 7.56218 11.078 7.56218 12.6217C7.56218 13.7136 8.62565 14.5796 9.65115 14.9937C10.6766 15.3702 11.3603 15.4079 12.6897 15.5208C13.943 15.6338 15.1205 15.7844 15.9561 16.0856C16.5638 16.3115 16.6017 16.3492 16.7537 16.4621C17.0955 16.688 17.1715 17.0645 17.1715 17.0645C17.1715 17.0645 16.9056 17.2528 16.4878 17.1398C14.8166 16.688 12.044 16.801 9.955 16.7257C7.82805 16.6504 5.39724 15.6338 5.05541 12.9229C4.94147 11.8687 5.20733 10.5885 6.57466 9.98611C7.97997 9.38369 9.15739 8.32945 9.84106 7.08696C10.4108 6.03273 11.4743 4.86554 13.2594 5.09145C15.3104 5.355 16.6017 7.87764 16.9056 9.49664C17.3234 11.6428 17.2094 12.9606 17.2094 13.9395C17.1715 14.8808 16.7916 15.2196 16.7916 15.2196Z" fill="#FFED00"/>
<path d="M19.7922 16.8014C19.7922 16.8014 20.0581 16.5002 20.7418 16.4249C22.6788 16.199 23.6664 16.0107 24.8438 15.5589C26.1351 15.0695 27.7304 14.2035 27.8823 13.3375C28.1482 11.6808 25.5274 11.9444 24.312 10.7019C23.2486 9.57237 23.9702 7.65216 22.413 7.65216C21.3115 7.65216 20.4379 8.70639 20.0201 9.72297C19.6403 10.7396 19.6023 11.4173 19.4884 12.7351C19.3745 13.9776 19.2225 15.1448 18.9187 15.9731C18.6908 16.5755 18.6528 16.6132 18.5389 16.7638C18.311 17.1026 17.9312 17.1779 17.9312 17.1779C17.9312 17.1779 17.7413 16.9144 17.8552 16.5002C18.311 14.8435 18.197 12.095 18.273 10.0242C18.349 7.91572 19.3745 5.50603 22.1091 5.16717C23.1726 5.05422 24.464 5.31778 25.0717 6.67322C25.6794 8.06632 26.7429 9.23351 27.9962 9.91123C29.0597 10.476 30.2371 11.5302 30.0093 13.2998C29.7434 15.333 27.1986 16.6132 25.5654 16.9144C23.4005 17.3285 22.0711 17.2156 21.0836 17.2156C20.1341 17.1779 19.7922 16.8014 19.7922 16.8014Z" fill="#FFED00"/>
<path d="M18.273 28.8117C18.349 29.3765 18.311 29.3765 18.3869 29.9789C18.6148 32.0121 21.1216 34.9489 21.1216 34.9489C21.1216 34.9489 20.6658 35.8902 20.21 35.5513C19.8682 35.2878 15.5763 31.485 17.1715 26.8539C17.5514 27.0798 18.159 27.7199 18.273 28.8117Z" fill="#FFED00"/>
<path d="M1.67524 46.5454C1.90313 46.6583 2.13102 46.7336 2.32093 46.7336C2.54882 46.7336 2.70074 46.6583 2.81469 46.5077C2.89065 46.3571 2.96662 46.1312 2.96662 45.7923V43.1191C3.04258 43.1191 3.15652 43.0815 3.27047 43.0815C3.38442 43.0815 3.49836 43.0815 3.57432 43.1191V45.6794C3.57432 45.9053 3.57432 46.1312 3.53634 46.2818C3.49836 46.4324 3.46038 46.6207 3.34643 46.7713C3.19451 47.0725 2.85267 47.2231 2.35891 47.2231C2.01707 47.2231 1.71322 47.1478 1.40936 46.9595C1.44734 46.8466 1.52331 46.696 1.67524 46.5454Z" fill="#E30613"/>
<path d="M4.8277 46.8466C4.8277 46.6584 4.94164 46.5078 5.09357 46.3571C5.51136 46.6207 5.89117 46.7713 6.30897 46.7713C6.53685 46.7713 6.72676 46.7337 6.87868 46.6207C7.03061 46.5078 7.06859 46.3948 7.06859 46.2065C7.06859 45.943 6.87869 45.7171 6.53685 45.5665L5.81521 45.2653C5.28347 45.0394 4.97962 44.7005 4.97962 44.2487C4.97962 44.0981 5.0176 43.9475 5.09357 43.7969C5.16953 43.6463 5.24549 43.5333 5.35944 43.4204C5.47338 43.3074 5.6253 43.2321 5.77723 43.1944C5.92915 43.1568 6.11906 43.1191 6.34695 43.1191C6.76474 43.1191 7.18254 43.2321 7.60033 43.4204C7.60033 43.6086 7.52437 43.7592 7.37244 43.9098C6.99263 43.7216 6.6508 43.6463 6.34695 43.6463C6.11906 43.6463 5.96714 43.6839 5.81521 43.7969C5.70127 43.9098 5.6253 44.0228 5.6253 44.1734C5.6253 44.324 5.66329 44.4369 5.73925 44.5122C5.81521 44.5875 5.92915 44.6628 6.11906 44.7381L6.80272 45.0394C7.10657 45.1523 7.33446 45.3029 7.48639 45.4912C7.63831 45.6794 7.71427 45.8677 7.71427 46.1312C7.71427 46.4701 7.60033 46.7713 7.33446 46.9972C7.06859 47.2231 6.68878 47.3361 6.19502 47.3361C5.70127 47.2984 5.24549 47.1478 4.8277 46.8466Z" fill="#E30613"/>
<path d="M9.00568 47.1855L9.30953 43.1568C9.42347 43.1568 9.53741 43.1191 9.72732 43.1191C9.91722 43.1191 10.0312 43.1191 10.1451 43.1568L10.7148 45.0017C10.8288 45.3406 10.9047 45.6418 10.9427 45.943H10.9807C11.0187 45.7547 11.0946 45.4535 11.2086 45.0017L11.7783 43.1568C11.8922 43.1568 12.0062 43.1191 12.1961 43.1191C12.386 43.1191 12.4999 43.1191 12.6139 43.1568L12.9177 47.1855C12.8418 47.2231 12.7278 47.2231 12.6139 47.2231C12.4999 47.2231 12.386 47.2231 12.31 47.1855L12.1581 45.0017C12.1201 44.7005 12.1201 44.2863 12.1201 43.7969H12.0821L11.3225 46.5831C11.2086 46.5831 11.0946 46.6207 10.9807 46.6207C10.9047 46.6207 10.7908 46.6207 10.6768 46.5831L9.84126 43.8345H9.80328C9.7653 44.4369 9.7653 44.8511 9.7653 45.0394L9.61337 47.2231C9.53741 47.2231 9.42347 47.2608 9.30953 47.2608C9.19558 47.2231 9.08164 47.2231 9.00568 47.1855Z" fill="#E30613"/>
<path d="M15.1586 46.3948V46.696C15.2725 46.696 15.4245 46.696 15.5384 46.696H17.0957C17.0957 46.809 17.0957 46.8843 17.0957 46.9219C17.0577 47.1102 16.9058 47.2231 16.6779 47.2231H14.8927C14.7788 47.2231 14.7028 47.1855 14.6268 47.1102C14.5509 47.0349 14.5129 46.9596 14.5129 46.809V43.1944L14.5509 43.1568H16.9438C16.9438 43.2321 16.9438 43.3074 16.9438 43.4203C16.9438 43.5333 16.9438 43.6086 16.9058 43.6839H15.1206V44.0604V44.8887H15.5004H16.6399C16.6779 44.964 16.6779 45.0393 16.6779 45.1523C16.6779 45.2652 16.6779 45.3405 16.6399 45.4158H15.5004C15.3485 45.4158 15.2346 45.4158 15.1206 45.4158V46.3948H15.1586Z" fill="#E30613"/>
<path d="M20.0962 46.8466C20.0962 46.6584 20.2101 46.5078 20.3621 46.3571C20.7799 46.6207 21.1597 46.7713 21.5775 46.7713C21.8053 46.7713 21.9953 46.7337 22.1472 46.6207C22.2991 46.5078 22.3371 46.3948 22.3371 46.2065C22.3371 45.943 22.1472 45.7171 21.8053 45.5665L21.0837 45.2653C20.552 45.0394 20.2481 44.7005 20.2481 44.2487C20.2481 44.0981 20.2861 43.9475 20.3621 43.7969C20.438 43.6463 20.514 43.5333 20.6279 43.4204C20.7419 43.3074 20.8938 43.2321 21.0457 43.1944C21.1976 43.1568 21.3876 43.1191 21.6154 43.1191C22.0332 43.1191 22.451 43.2321 22.8688 43.4204C22.8688 43.6086 22.7929 43.7592 22.6409 43.9098C22.2611 43.7216 21.9193 43.6463 21.6154 43.6463C21.3876 43.6463 21.2356 43.6839 21.0837 43.7969C20.9698 43.9098 20.8938 44.0228 20.8938 44.1734C20.8938 44.324 20.9318 44.4369 21.0077 44.5122C21.0837 44.5875 21.1976 44.6628 21.3876 44.7381L22.0712 45.0394C22.3751 45.1523 22.603 45.3029 22.7549 45.4912C22.9068 45.6794 22.9828 45.8677 22.9828 46.1312C22.9828 46.4701 22.8688 46.7713 22.603 46.9972C22.3371 47.2231 21.9573 47.3361 21.4635 47.3361C20.9698 47.2984 20.514 47.1478 20.0962 46.8466Z" fill="#E30613"/>
<path d="M24.7679 46.9219C24.3501 46.5454 24.1223 45.9806 24.1223 45.1899C24.1223 44.8511 24.1602 44.5875 24.2362 44.3239C24.3122 44.0604 24.4261 43.8345 24.5401 43.6462C24.692 43.458 24.8439 43.3074 25.0718 43.2321C25.2617 43.1191 25.5276 43.0815 25.7934 43.0815C26.0593 43.0815 26.2872 43.1191 26.5151 43.2321C26.743 43.345 26.8949 43.458 27.0468 43.6462C27.1988 43.8345 27.2747 44.0604 27.3507 44.3239C27.4266 44.5875 27.4646 44.8887 27.4646 45.1899C27.4646 45.5288 27.4266 45.7923 27.3507 46.0559C27.2747 46.3195 27.1608 46.5454 27.0468 46.7336C26.8949 46.9219 26.743 47.0725 26.5151 47.1478C26.2872 47.2607 26.0593 47.2984 25.7934 47.2984C25.3756 47.2984 25.0338 47.1854 24.7679 46.9219ZM24.9958 44.1357C24.9199 44.2863 24.8819 44.4745 24.8439 44.6252C24.8059 44.8134 24.8059 44.964 24.8059 45.1523C24.8059 45.3405 24.8059 45.5664 24.8439 45.7547C24.8819 45.9429 24.9199 46.1312 24.9958 46.2818C25.0718 46.4324 25.1857 46.5454 25.2997 46.6583C25.4136 46.7336 25.6035 46.8089 25.7934 46.8089C26.0213 46.8089 26.1733 46.7713 26.3252 46.6583C26.4391 46.5454 26.5531 46.4324 26.629 46.2442C26.705 46.0936 26.743 45.9053 26.781 45.717C26.8189 45.5288 26.8189 45.3782 26.8189 45.1899C26.8189 45.0393 26.8189 44.8511 26.781 44.6628C26.743 44.4745 26.705 44.2863 26.629 44.1357C26.5531 43.9851 26.4771 43.8345 26.3252 43.7215C26.1733 43.6086 26.0213 43.5709 25.7934 43.5709C25.6035 43.5709 25.4136 43.6086 25.2997 43.7215C25.1478 43.8345 25.0338 43.9474 24.9958 44.1357Z" fill="#E30613"/>
<path d="M31.8704 43.1568V45.7924C31.8704 46.2818 31.7184 46.6583 31.4526 46.9219C31.1867 47.1855 30.8069 47.2984 30.3511 47.2984C29.8953 47.2984 29.5155 47.1855 29.2496 46.9219C28.9838 46.6583 28.8318 46.2818 28.8318 45.7924V43.1944L28.8698 43.1568H29.0977C29.2117 43.1568 29.3256 43.1944 29.3636 43.2697C29.4016 43.345 29.4395 43.4203 29.4395 43.5709V45.83C29.4395 46.1689 29.5155 46.3948 29.6674 46.583C29.8194 46.7336 30.0473 46.8466 30.3131 46.8466C30.8828 46.8466 31.1867 46.5077 31.1867 45.8677V43.2321C31.2247 43.2321 31.2627 43.2321 31.3386 43.2321C31.3766 43.2321 31.4526 43.2321 31.4905 43.2321C31.5665 43.2321 31.6045 43.2321 31.6804 43.2321C31.7944 43.1568 31.8324 43.1568 31.8704 43.1568Z" fill="#E30613"/>
<path d="M35.7065 44.5507C35.7065 44.4377 35.7065 44.2871 35.6685 44.1742C35.6305 44.0612 35.5925 43.9483 35.5166 43.873C35.4406 43.7977 35.3646 43.7224 35.2507 43.647C35.1367 43.6094 35.0228 43.5717 34.8709 43.5717C34.567 43.5717 34.3391 43.7224 34.1872 43.9859C34.0353 44.2495 33.9593 44.6636 33.9593 45.1531C33.9593 45.6426 34.0353 46.0567 34.2252 46.3203C34.3771 46.5839 34.643 46.7345 34.9848 46.7345C35.3267 46.7345 35.6685 46.5838 36.0483 46.2826C36.2002 46.3956 36.3142 46.5085 36.3521 46.6968C36.2762 46.7721 36.1622 46.8474 36.0483 46.9227C35.9344 46.998 35.8204 47.0733 35.7065 47.111C35.5925 47.1486 35.4406 47.2239 35.3267 47.2239C35.1747 47.2616 35.0608 47.2616 34.9468 47.2616C34.643 47.2616 34.3771 47.1863 34.1872 47.0733C33.9973 46.9604 33.8074 46.8098 33.6935 46.6215C33.5795 46.4332 33.5035 46.2073 33.4276 45.9438C33.3516 45.6802 33.3516 45.4167 33.3516 45.1531C33.3516 44.8142 33.3896 44.4754 33.4656 44.2118C33.5415 43.9483 33.6555 43.7224 33.8074 43.5341C33.9593 43.3458 34.1113 43.2329 34.3012 43.1199C34.4911 43.0446 34.719 42.9693 34.9089 42.9693C35.1367 42.9693 35.3267 43.007 35.5166 43.0823C35.7065 43.1576 35.8584 43.2329 35.9723 43.3458C36.0863 43.4588 36.2002 43.5717 36.2762 43.7224C36.3521 43.873 36.3901 44.0236 36.3901 44.1742C36.3901 44.4001 36.2762 44.513 36.0483 44.513C35.8964 44.5883 35.8204 44.5883 35.7065 44.5507ZM34.2252 41.9151L34.9089 42.3669L35.5925 41.8774C35.6305 41.9151 35.7065 41.9151 35.7444 41.9904C35.7824 42.028 35.8204 42.1033 35.8584 42.141L35.1747 42.8187C34.9848 42.8564 34.7949 42.8564 34.605 42.8187L33.9213 42.1787C33.9973 42.0657 34.0733 41.9527 34.2252 41.9151Z" fill="#E30613"/>
<path d="M39.7326 46.2442H39.3907H38.5551H38.2133L37.9094 47.2231C37.8335 47.2231 37.7575 47.2608 37.6436 47.2608C37.5296 47.2608 37.4157 47.2608 37.3397 47.2231V47.1855L38.7071 43.1568C38.783 43.1568 38.897 43.1191 39.0869 43.1191C39.2388 43.1191 39.3527 43.1191 39.4287 43.1568L40.7581 47.1855C40.6821 47.2231 40.5681 47.2608 40.4542 47.2608C40.3403 47.2608 40.2263 47.2231 40.1883 47.1855C40.1504 47.1478 40.0744 47.0349 40.0364 46.9219L39.7326 46.2442ZM38.3652 45.7171H38.6691H39.2768C39.4287 45.7171 39.5426 45.7171 39.5806 45.7171L39.3148 44.8511C39.1628 44.3993 39.0869 44.0604 39.0109 43.7969H38.9729C38.9349 44.0228 38.859 44.2863 38.745 44.6628L38.3652 45.7171ZM38.4032 42.5544L39.6186 41.839C39.6946 41.8766 39.7326 41.9519 39.8085 42.0649C39.8465 42.1779 39.8845 42.2532 39.9225 42.3661L38.6311 42.8932C38.5931 42.8556 38.5551 42.8179 38.5171 42.7426C38.4412 42.705 38.4412 42.6297 38.4032 42.5544Z" fill="#E30613"/>
<path d="M41.6317 46.8466C41.6317 46.6584 41.7456 46.5078 41.8975 46.3571C42.3153 46.6207 42.6951 46.7713 43.1129 46.7713C43.3408 46.7713 43.5307 46.7337 43.6826 46.6207C43.8346 46.5078 43.8725 46.3948 43.8725 46.2065C43.8725 45.943 43.6826 45.7171 43.3408 45.5665L42.6192 45.2653C42.0874 45.0394 41.7836 44.7005 41.7836 44.2487C41.7836 44.0981 41.8216 43.9475 41.8975 43.7969C41.9735 43.6463 42.0494 43.5333 42.1634 43.4204C42.2773 43.3074 42.4293 43.2321 42.5812 43.1944C42.7331 43.1568 42.923 43.1191 43.1509 43.1191C43.5687 43.1191 43.9865 43.2321 44.4043 43.4204C44.4043 43.6086 44.3283 43.7592 44.1764 43.9098C43.7966 43.7216 43.4548 43.6463 43.1509 43.6463C42.923 43.6463 42.7711 43.6839 42.6192 43.7969C42.5052 43.9098 42.4293 44.0228 42.4293 44.1734C42.4293 44.324 42.4672 44.4369 42.5432 44.5122C42.6192 44.5875 42.7331 44.6628 42.923 44.7381L43.6067 45.0394C43.9105 45.1523 44.1384 45.3029 44.2903 45.4912C44.4423 45.6794 44.5182 45.8677 44.5182 46.1312C44.5182 46.4701 44.4043 46.7713 44.1384 46.9972C43.8725 47.2231 43.4927 47.3361 42.999 47.3361C42.5052 47.2984 42.0494 47.1478 41.6317 46.8466Z" fill="#E30613"/>
<path d="M47.5187 43.6839H47.1769V47.2231C47.1009 47.2231 46.987 47.2608 46.8731 47.2608C46.7591 47.2608 46.6452 47.2608 46.5312 47.2231V44.1357V43.6839H46.1894H45.4678C45.4678 43.6086 45.4298 43.4956 45.4298 43.4203C45.4298 43.3074 45.4298 43.2321 45.4678 43.1568H48.2404C48.2783 43.2697 48.2783 43.345 48.2783 43.4203C48.2783 43.6086 48.1644 43.6839 47.9365 43.6839H47.5187Z" fill="#E30613"/>
<path d="M49.1899 42.5544L50.4053 41.839C50.4813 41.8766 50.5192 41.9519 50.5952 42.0649C50.6332 42.1779 50.6712 42.2532 50.7091 42.3661L49.4178 42.8932C49.3798 42.8556 49.3419 42.8179 49.3039 42.7426C49.2279 42.705 49.1899 42.6297 49.1899 42.5544ZM49.4558 47.2231V43.1568C49.5318 43.1568 49.6457 43.1191 49.7596 43.1191C49.8736 43.1191 49.9875 43.1191 50.0635 43.1568V47.2231C49.9875 47.2231 49.8736 47.2608 49.7596 47.2608C49.6457 47.2231 49.5318 47.2231 49.4558 47.2231Z" fill="#E30613"/>
<path d="M55.9126 44.5507C55.9126 44.4377 55.9126 44.2871 55.8747 44.1742C55.8367 44.0612 55.7987 43.9483 55.7227 43.873C55.6468 43.7977 55.5708 43.7224 55.4569 43.647C55.3429 43.6094 55.229 43.5717 55.0771 43.5717C54.7732 43.5717 54.5453 43.7224 54.3934 43.9859C54.2415 44.2495 54.1655 44.6636 54.1655 45.1531C54.1655 45.6426 54.2415 46.0567 54.4314 46.3203C54.6213 46.5839 54.8492 46.7345 55.191 46.7345C55.5328 46.7345 55.8747 46.5838 56.2545 46.2826C56.4064 46.3956 56.5203 46.5085 56.5583 46.6968C56.4824 46.7721 56.3684 46.8474 56.2545 46.9227C56.1405 46.998 56.0266 47.0733 55.9126 47.111C55.7987 47.1486 55.6468 47.2239 55.5328 47.2239C55.3809 47.2616 55.267 47.2616 55.153 47.2616C54.8492 47.2616 54.5833 47.1863 54.3934 47.0733C54.2035 46.9604 54.0136 46.8098 53.8996 46.6215C53.7857 46.4332 53.7097 46.2073 53.6338 45.9438C53.5578 45.6802 53.5578 45.4167 53.5578 45.1531C53.5578 44.8142 53.5958 44.4754 53.6717 44.2118C53.7477 43.9483 53.8616 43.7224 54.0136 43.5341C54.1655 43.3458 54.3174 43.2329 54.5073 43.1199C54.6972 43.0446 54.9251 42.9693 55.115 42.9693C55.3429 42.9693 55.5328 43.007 55.7227 43.0823C55.9126 43.1576 56.0646 43.2329 56.1785 43.3458C56.2925 43.4588 56.4064 43.5717 56.4824 43.7224C56.5583 43.873 56.5963 44.0236 56.5963 44.1742C56.5963 44.4001 56.4824 44.513 56.2545 44.513C56.1026 44.5883 56.0266 44.5883 55.9126 44.5507ZM54.4314 41.9151L55.115 42.3669L55.7987 41.8774C55.8367 41.9151 55.9126 41.9151 55.9506 41.9904C55.9886 42.028 56.0266 42.1033 56.0646 42.141L55.3809 42.8187C55.191 42.8564 55.0011 42.8564 54.8112 42.8187L54.1275 42.1787C54.2035 42.0657 54.2794 41.9527 54.4314 41.9151Z" fill="#E30613"/>
<path d="M57.5839 46.8466C57.5839 46.6584 57.6978 46.5078 57.8497 46.3571C58.2675 46.6207 58.6473 46.7713 59.0651 46.7713C59.293 46.7713 59.4829 46.7337 59.6349 46.6207C59.7868 46.5078 59.8248 46.3948 59.8248 46.2065C59.8248 45.943 59.6349 45.7171 59.293 45.5665L58.5714 45.2653C58.0396 45.0394 57.7358 44.7005 57.7358 44.2487C57.7358 44.0981 57.7738 43.9475 57.8497 43.7969C57.9257 43.6463 58.0017 43.5333 58.1156 43.4204C58.2295 43.3074 58.3815 43.2321 58.5334 43.1944C58.6853 43.1568 58.8752 43.1191 59.1031 43.1191C59.5209 43.1191 59.9387 43.2321 60.3565 43.4204C60.3565 43.6086 60.2805 43.7592 60.1286 43.9098C59.7488 43.7216 59.407 43.6463 59.1031 43.6463C58.8752 43.6463 58.7233 43.6839 58.5714 43.7969C58.4574 43.9098 58.3815 44.0228 58.3815 44.1734C58.3815 44.324 58.4194 44.4369 58.4954 44.5122C58.5714 44.5875 58.6853 44.6628 58.8752 44.7381L59.5589 45.0394C59.8627 45.1523 60.0906 45.3029 60.2426 45.4912C60.3945 45.6794 60.4704 45.8677 60.4704 46.1312C60.4704 46.4701 60.3565 46.7713 60.0906 46.9972C59.8248 47.2231 59.4449 47.3361 58.9512 47.3361C58.4954 47.2984 58.0017 47.1478 57.5839 46.8466Z" fill="#E30613"/>
<path d="M62.2555 46.9219C61.8377 46.5454 61.6098 45.9806 61.6098 45.1899C61.6098 44.8511 61.6478 44.5875 61.7237 44.3239C61.7997 44.0604 61.9137 43.8345 62.0276 43.6462C62.1795 43.458 62.3314 43.3074 62.5593 43.2321C62.7492 43.1191 63.0151 43.0815 63.281 43.0815C63.5469 43.0815 63.7747 43.1191 64.0026 43.2321C64.2305 43.345 64.3825 43.458 64.5344 43.6462C64.6863 43.8345 64.7623 44.0604 64.8382 44.3239C64.9142 44.5875 64.9522 44.8887 64.9522 45.1899C64.9522 45.5288 64.9142 45.7923 64.8382 46.0559C64.7623 46.3195 64.6483 46.5454 64.5344 46.7336C64.3825 46.9219 64.2305 47.0725 64.0026 47.1478C63.7747 47.2607 63.5469 47.2984 63.281 47.2984C62.9012 47.2984 62.5593 47.1854 62.2555 46.9219ZM62.4834 44.1357C62.4074 44.2863 62.3694 44.4745 62.3315 44.6252C62.2935 44.8134 62.2935 44.964 62.2935 45.1523C62.2935 45.3405 62.2935 45.5664 62.3315 45.7547C62.3694 45.9429 62.4074 46.1312 62.4834 46.2818C62.5593 46.4324 62.6733 46.5454 62.7872 46.6583C62.9012 46.7336 63.0911 46.8089 63.281 46.8089C63.5089 46.8089 63.6608 46.7713 63.8127 46.6583C63.9267 46.5454 64.0406 46.4324 64.1166 46.2442C64.1925 46.0936 64.2305 45.9053 64.2685 45.717C64.3065 45.5288 64.3065 45.3782 64.3065 45.1899C64.3065 45.0393 64.3065 44.8511 64.2685 44.6628C64.2305 44.4745 64.1925 44.2863 64.1166 44.1357C64.0406 43.9851 63.9647 43.8345 63.8127 43.7215C63.6608 43.6086 63.5089 43.5709 63.281 43.5709C63.0911 43.5709 62.9012 43.6086 62.7872 43.7215C62.6733 43.8345 62.5593 43.9474 62.4834 44.1357Z" fill="#E30613"/>
<path d="M67.7628 47.2231H66.4335L66.3955 47.1855V43.1944L66.4335 43.1568H67.6869C68.1047 43.1568 68.4465 43.2321 68.6744 43.4203C68.9023 43.6086 69.0162 43.8721 69.0162 44.211C69.0162 44.3993 68.9782 44.5875 68.8643 44.7005C68.7503 44.8511 68.6364 44.964 68.4465 45.0393C68.5604 45.077 68.6364 45.1146 68.7503 45.1899C68.8263 45.2652 68.9403 45.3405 68.9782 45.4158C69.0542 45.4912 69.0922 45.6041 69.1302 45.7171C69.1681 45.83 69.2061 45.943 69.2061 46.0559C69.2061 46.3948 69.0922 46.696 68.8643 46.8843C68.5984 47.1102 68.2566 47.2231 67.7628 47.2231ZM67.0412 43.6086V44.8134H67.6489C67.7628 44.8134 67.8768 44.8134 67.9527 44.7758C68.0287 44.7381 68.1047 44.7005 68.1806 44.6628C68.2186 44.6252 68.2566 44.5499 68.2946 44.4746C68.3326 44.3993 68.3326 44.324 68.3326 44.2487C68.3326 43.8345 68.1047 43.6462 67.6489 43.6462H67.2691C67.1931 43.6086 67.1172 43.6086 67.0412 43.6086ZM67.0412 46.7713H67.7628C67.9148 46.7713 68.0287 46.7336 68.1426 46.696C68.2566 46.6583 68.3325 46.6207 68.3705 46.5454C68.4465 46.4701 68.4845 46.3948 68.4845 46.3195C68.5225 46.2442 68.5225 46.1312 68.5225 46.0559C68.5225 45.9806 68.5225 45.8677 68.4845 45.7924C68.4465 45.7171 68.4085 45.6418 68.3326 45.5665C68.2566 45.4912 68.1806 45.4535 68.0667 45.4158C67.9527 45.3782 67.8388 45.3405 67.6869 45.3405H67.0032V46.7713H67.0412Z" fill="#E30613"/>
</svg>
