<svg width="72" height="56" viewBox="0 0 72 56" fill="none" xmlns="http://www.w3.org/2000/svg">
<path d="M36.2372 24.0913C42.9307 24.0913 48.3547 18.7825 48.3547 12.2312C48.3547 5.67987 42.9307 0.408691 36.2372 0.408691C29.5437 0.446343 24.1196 5.71752 24.1196 12.2688C24.1196 18.8202 29.5437 24.0913 36.2372 24.0913Z" fill="#009FE3"/>
<path d="M45.1618 21.8322C42.8537 24.2795 38.776 26.7268 33.5828 26.7268C29.5436 26.7268 26.043 25.1831 23.8503 23.4888C10.6557 24.8443 0.8078 26.7645 0.8078 26.7645V31.998H70.8202V21.1921C70.8202 21.1921 58.8565 21.1168 45.1618 21.8322Z" fill="#009FE3"/>
<path d="M16.2721 42.6157C16.2721 47.0962 20.042 47.8493 22.7733 48.414C24.2351 48.7152 25.4276 48.9411 25.4276 49.6565C25.4276 50.3719 24.0042 50.6355 22.6579 50.6355C20.619 50.6355 18.5033 50.2213 16.7722 49.5059L16.426 49.3553V54.4382L16.6183 54.4759C19.1572 55.0783 21.3115 55.3042 23.8504 55.3042C26.4662 55.3042 32.5827 54.7018 32.5827 49.1671C32.5827 44.6866 28.8128 43.9712 26.0431 43.4441C24.5813 43.1429 23.4272 42.9546 23.4272 42.2769C23.4272 41.4486 24.7736 41.3356 26.0431 41.3356C27.7742 41.3356 29.5052 41.6368 31.1209 42.2016L31.4287 42.3145V37.3446L31.2363 37.3069C29.3514 36.9304 27.2741 36.7045 25.4276 36.7045C19.3496 36.7045 16.2721 38.7 16.2721 42.6157Z" fill="#003865"/>
<path d="M40.5841 46.0044C40.5841 42.9546 41.3919 41.3733 43.0076 41.3733C45.2003 41.3733 45.4696 44.0088 45.508 46.0044C45.4696 48.2258 45.2772 50.6355 43.0076 50.6355C41.3535 50.6355 40.5841 49.1294 40.5841 46.0044ZM33.1212 46.0044C33.1212 52.0286 36.6219 55.3419 43.0076 55.3419C49.4318 55.3419 52.9709 52.0286 52.9709 46.0044C52.9709 40.0931 49.3548 36.7045 43.0076 36.7045C36.6988 36.7045 33.1212 40.0931 33.1212 46.0044Z" fill="#003865"/>
<path d="M62.4725 40.7709C63.8574 40.7709 64.5498 41.2603 64.5498 42.2393C64.5498 43.4441 63.3573 43.7077 62.3571 43.7077H60.9338V40.7709H62.4725ZM62.434 47.8117C64.0112 47.8117 64.6652 48.2635 64.6652 49.3554C64.6652 50.8238 62.8956 50.9367 62.3571 50.9367H60.8568V47.8117H62.434ZM54.3557 37.0057H54.1249V55.0407H64.4728C68.3197 55.0407 71.8588 54.4383 71.8588 49.9201C71.8588 48.3011 70.5893 46.4562 68.512 45.8538C70.5893 45.1008 71.551 43.7453 71.551 41.5615C71.551 38.6247 69.3583 37.0057 65.3191 37.0057H54.3557Z" fill="#003865"/>
<path d="M5.4625 33.7677L3.38521 35.6503L3.53908 35.7632C3.57755 35.8009 4.77007 36.7798 6.65502 37.2693C2.46197 38.4741 0 41.5992 0 45.7408C0 51.6144 4.07764 55.2665 10.6172 55.2665C12.7715 55.2665 14.8488 54.7394 15.4643 54.5512L15.5797 54.5135V49.4683L15.3489 49.5436C14.0409 49.9954 12.9253 50.2213 11.8098 50.2213C8.92465 50.2213 7.23204 48.5646 7.23204 45.8537C7.23204 43.2558 9.07852 41.6368 12.0406 41.6368C13.1562 41.6368 14.2717 41.938 15.3104 42.2769L15.5412 42.3522V37.3446L15.0411 37.2693C14.1563 37.1187 13.387 36.9681 12.5791 36.8928C14.0409 36.2527 15.0026 35.4244 15.4643 34.8972L15.6181 34.7466L14.8103 34.1442L14.6949 34.2572C14.6949 34.2572 13.1946 35.8385 10.4249 35.8009C7.50132 35.7632 5.77025 33.8054 5.77025 33.7677L5.65484 33.6171" fill="#003865"/>
</svg>
