<svg width="70" height="53" viewBox="0 0 70 53" fill="none" xmlns="http://www.w3.org/2000/svg">
<path d="M13.3458 52.3399V48.876C13.3458 47.5582 12.4995 46.6922 11.1146 46.6922C10.3837 46.6922 9.65285 46.9182 9.11429 47.6712C8.72961 47.0688 8.11412 46.6922 7.26781 46.6922C6.65232 46.6922 6.0753 46.8805 5.61368 47.5206V46.8429H4.38269V52.3776H5.61368V49.3278C5.61368 48.3866 6.15223 47.8594 6.99853 47.8594C7.80637 47.8594 8.22952 48.3866 8.22952 49.3278V52.4152H9.46051V49.3655C9.46051 48.4242 10.0375 47.8971 10.8454 47.8971C11.6917 47.8971 12.0764 48.4242 12.0764 49.3655V52.4529H13.3458V52.3399ZM31.6952 46.8052H29.6948V45.1109H28.4254V46.8052H27.2713V47.8971H28.4254V50.4197C28.4254 51.6999 28.9255 52.4529 30.3873 52.4529C30.9258 52.4529 31.5413 52.3023 31.926 52.0387L31.5798 51.0221C31.1951 51.248 30.8104 51.3234 30.5027 51.3234C29.8872 51.3234 29.6948 50.9468 29.6948 50.3821V47.8971H31.6952V46.8052ZM42.1586 46.6922C41.4661 46.6922 41.0045 47.0311 40.6583 47.5206V46.8429H39.4273V52.3776H40.6583V49.2902C40.6583 48.3866 41.043 47.8594 41.8508 47.8594C42.0816 47.8594 42.3509 47.8971 42.6202 48.01L43.0049 46.8805C42.7356 46.7299 42.3894 46.6922 42.1586 46.6922ZM26.3096 47.257C25.7326 46.8805 24.9248 46.6922 24.0015 46.6922C22.5782 46.6922 21.655 47.37 21.655 48.4619C21.655 49.3655 22.3474 49.9303 23.6168 50.0809L24.1939 50.1562C24.8478 50.2315 25.194 50.4197 25.194 50.7209C25.194 51.1351 24.7324 51.3987 23.9246 51.3987C23.0783 51.3987 22.4628 51.1351 22.0396 50.8339L21.4626 51.7752C22.1166 52.2646 23.0014 52.4905 23.9246 52.4905C25.5403 52.4905 26.502 51.7375 26.502 50.6833C26.502 49.7043 25.7711 49.2149 24.5401 49.0266L23.9631 48.9513C23.4245 48.876 23.0014 48.7631 23.0014 48.4242C23.0014 48.01 23.386 47.7841 24.0785 47.7841C24.8094 47.7841 25.5018 48.0477 25.848 48.2736L26.3096 47.257ZM59.2 46.6922C58.5076 46.6922 58.046 47.0311 57.6998 47.5206V46.8429H56.5072V52.3776H57.7382V49.2902C57.7382 48.3866 58.1229 47.8594 58.9307 47.8594C59.1616 47.8594 59.4308 47.8971 59.7001 48.01L60.0848 46.8805C59.8155 46.7299 59.4693 46.6922 59.2 46.6922ZM43.3896 49.5914C43.3896 51.248 44.5821 52.4905 46.3901 52.4905C47.2364 52.4905 47.8134 52.3023 48.4289 51.8505L47.8519 50.8715C47.3903 51.2104 46.8902 51.361 46.3901 51.361C45.4284 51.361 44.6975 50.6456 44.6975 49.5914C44.6975 48.5372 45.4284 47.8218 46.3901 47.8218C46.9286 47.8218 47.3903 48.01 47.8519 48.3113L48.4289 47.3323C47.8134 46.8429 47.2364 46.6546 46.3901 46.6546C44.5821 46.6922 43.3896 47.8971 43.3896 49.5914ZM54.8916 49.5914V46.8429H53.6606V47.5206C53.2759 47.0311 52.6989 46.6922 51.891 46.6922C50.3138 46.6922 49.0829 47.8971 49.0829 49.5914C49.0829 51.2857 50.3138 52.4905 51.891 52.4905C52.6989 52.4905 53.2759 52.1893 53.6606 51.6999V52.3776H54.8916V49.5914ZM50.3138 49.5914C50.3138 48.6125 50.9678 47.8218 52.0065 47.8218C53.0066 47.8218 53.6991 48.5748 53.6991 49.5914C53.6991 50.608 53.0066 51.361 52.0065 51.361C50.9678 51.361 50.3138 50.5327 50.3138 49.5914ZM35.5035 46.6922C33.8494 46.6922 32.6954 47.8594 32.6954 49.5914C32.6954 51.361 33.8879 52.4905 35.5805 52.4905C36.4268 52.4905 37.1962 52.3023 37.8886 51.6999L37.2731 50.7962C36.8115 51.1727 36.196 51.361 35.619 51.361C34.8111 51.361 34.1187 50.9845 33.9263 50.0056H38.1194C38.1194 49.855 38.1579 49.7043 38.1579 49.5537C38.1579 47.8594 37.0807 46.6922 35.5035 46.6922ZM35.4651 47.7465C36.2729 47.7465 36.773 48.2359 36.8884 49.1019H33.9648C34.1187 48.3112 34.6188 47.7465 35.4651 47.7465ZM66.2782 49.5914V44.6214H65.0472V47.5206C64.6625 47.0311 64.0855 46.6922 63.2777 46.6922C61.7005 46.6922 60.4695 47.8971 60.4695 49.5914C60.4695 51.2857 61.7005 52.4905 63.2777 52.4905C64.0855 52.4905 64.6625 52.1893 65.0472 51.6999V52.3776H66.2782V49.5914ZM61.7005 49.5914C61.7005 48.6125 62.3544 47.8218 63.3931 47.8218C64.3932 47.8218 65.0857 48.5748 65.0857 49.5914C65.0857 50.608 64.3932 51.361 63.3931 51.361C62.3544 51.361 61.7005 50.5327 61.7005 49.5914ZM20.2701 49.5914V46.8429H19.0391V47.5206C18.6544 47.0311 18.0774 46.6922 17.2696 46.6922C15.6924 46.6922 14.4614 47.8971 14.4614 49.5914C14.4614 51.2857 15.6924 52.4905 17.2696 52.4905C18.0774 52.4905 18.6544 52.1893 19.0391 51.6999V52.3776H20.2701V49.5914ZM15.6924 49.5914C15.6924 48.6125 16.3463 47.8218 17.4234 47.8218C18.4236 47.8218 19.1161 48.5748 19.1161 49.5914C19.1161 50.608 18.4236 51.361 17.4234 51.361C16.3463 51.361 15.6924 50.5327 15.6924 49.5914ZM68.317 51.5493C68.3939 51.5493 68.4709 51.5493 68.5478 51.5869C68.6248 51.6246 68.6632 51.6622 68.7402 51.6999C68.7786 51.7375 68.8171 51.8128 68.8556 51.8881C68.894 51.9634 68.894 52.0387 68.894 52.114C68.894 52.1893 68.894 52.2646 68.8556 52.3399C68.8171 52.4152 68.7786 52.4529 68.7402 52.5282C68.7017 52.5658 68.6248 52.6035 68.5478 52.6411C68.4709 52.6788 68.3939 52.6788 68.317 52.6788C68.2401 52.6788 68.1631 52.6788 68.0862 52.6411C68.0093 52.6035 67.9708 52.5658 67.8939 52.5282C67.8554 52.4905 67.8169 52.4152 67.7785 52.3399C67.74 52.2646 67.74 52.1893 67.74 52.114C67.74 52.0387 67.74 51.9634 67.7785 51.8881C67.8169 51.8128 67.8554 51.7752 67.8939 51.6999C67.9323 51.6622 68.0093 51.6246 68.0862 51.5869C68.1631 51.5493 68.2401 51.5493 68.317 51.5493ZM68.317 52.5282C68.3939 52.5282 68.4324 52.5282 68.4709 52.4905C68.5094 52.4529 68.5863 52.4529 68.6248 52.4152C68.6632 52.3776 68.7017 52.3399 68.7017 52.2646C68.7402 52.227 68.7402 52.1517 68.7402 52.114C68.7402 52.0387 68.7402 52.0011 68.7017 51.9634C68.6632 51.9258 68.6632 51.8505 68.6248 51.8128C68.5863 51.7752 68.5478 51.7375 68.4709 51.7375C68.4324 51.6999 68.3555 51.6999 68.317 51.6999C68.2785 51.6999 68.2016 51.6999 68.1631 51.7375C68.1247 51.7752 68.0477 51.7752 68.0093 51.8128C67.9708 51.8505 67.9323 51.8881 67.9323 51.9634C67.8939 52.0011 67.8939 52.0764 67.8939 52.114C67.8939 52.1893 67.8939 52.227 67.9323 52.2646C67.9708 52.3023 67.9708 52.3776 68.0093 52.4152C68.0477 52.4529 68.0862 52.4905 68.1631 52.4905C68.2016 52.4905 68.2401 52.5282 68.317 52.5282ZM68.3555 51.8128C68.4324 51.8128 68.4709 51.8128 68.5094 51.8505C68.5478 51.8881 68.5478 51.9258 68.5478 51.9634C68.5478 52.0011 68.5478 52.0387 68.5094 52.0764C68.4709 52.114 68.4324 52.114 68.3939 52.114L68.5478 52.3023H68.4324L68.2785 52.114H68.2401V52.3023H68.1247V51.7752H68.3555V51.8128ZM68.2401 51.9258V52.0764H68.3555C68.394 52.0764 68.394 52.0764 68.4324 52.0764L68.4709 52.0387C68.4709 52.0011 68.4709 52.0011 68.4324 52.0011C68.4324 52.0011 68.394 52.0011 68.3555 52.0011H68.2401V51.9258Z" fill="black"/>
<path d="M43.3127 21.0894C43.3127 14.4628 40.1198 8.55156 35.1958 4.74878C30.2719 8.55156 27.079 14.4628 27.079 21.0894C27.079 27.716 30.2719 33.6273 35.1958 37.4301C40.1583 33.6273 43.3127 27.716 43.3127 21.0894Z" fill="#EA5B0B"/>
<path d="M27.079 21.0894C27.079 14.4628 30.2334 8.55156 35.1958 4.74878C31.5798 1.96259 27.0405 0.26828 22.0781 0.26828C10.3453 0.26828 0.843628 9.56814 0.843628 21.0518C0.843628 32.5354 10.3453 41.8353 22.0781 41.8353C27.0405 41.8353 31.5798 40.1786 35.1958 37.3924C30.2718 33.6273 27.079 27.716 27.079 21.0894Z" fill="#DF1612"/>
<path d="M68.471 33.7026L68.2017 33.1755H68.0093V33.9662H68.1632V33.3637L68.394 33.8909H68.5479L68.7787 33.3637V33.9662H68.9326V33.1755H68.7018L68.471 33.7026Z" fill="#F59E00"/>
<path d="M67.1245 33.2884H67.3938V33.9662H67.5477V33.2884H67.817V33.1755H67.1245V33.2884Z" fill="#F59E00"/>
<path d="M48.352 0.26828C43.3896 0.26828 38.8503 1.92494 35.2343 4.71113C40.1967 8.51391 43.3511 14.4252 43.3511 21.0518C43.3511 27.6784 40.1967 33.5896 35.2343 37.3924C38.8503 40.1786 43.428 41.8353 48.352 41.8353C60.0848 41.8353 69.5865 32.5354 69.5865 21.0518C69.5865 9.60579 60.0848 0.26828 48.352 0.26828Z" fill="#F59E00"/>
</svg>
