<svg width="62" height="85" viewBox="0 0 62 85" fill="none" xmlns="http://www.w3.org/2000/svg">
<path fill-rule="evenodd" clip-rule="evenodd" d="M30.5149 0C37.6652 0 45.1632 0.925626 51.9742 3.15638L53.288 3.58671V6.6868C53.2345 11.0028 55.9182 14.8565 59.8802 16.4745L61.0673 16.9596V47.717C61.0673 59.88 55.51 69.7898 45.9459 77.0378C42.7913 79.4256 39.3039 81.4457 35.689 83.0506C34.1991 83.7103 32.5214 84.3977 30.9489 84.8482L30.4212 85L29.8945 84.8478C28.3334 84.3973 26.6657 83.7078 25.1879 83.0465C21.5963 81.4424 18.1346 79.4198 15.007 77.0323C5.48598 69.7655 0 59.8451 0 47.717V16.9817L1.15864 16.4859C5.0404 14.8274 7.64688 10.9877 7.59407 6.73462V3.64151L8.90258 3.2075C15.7556 0.939562 23.3162 0 30.5149 0Z" fill="white"/>
<path fill-rule="evenodd" clip-rule="evenodd" d="M30.5152 1.90921C38.2939 1.90921 45.4978 3.04186 51.3807 4.97004V6.66162C51.3151 11.8922 54.5957 16.3773 59.1582 18.2411V47.7161C59.1582 74.7841 30.4244 83.0144 30.4244 83.0144C30.4244 83.0144 1.90924 74.7841 1.90924 47.7161V18.2411C6.37357 16.332 9.56751 11.8716 9.50265 6.71058V5.01711C15.4122 3.06135 22.6703 1.90921 30.5152 1.90921Z" fill="#231F20"/>
<path fill-rule="evenodd" clip-rule="evenodd" d="M58.2032 31.93V31.5964L58.2028 31.5122C50.1357 31.5136 42.1946 33.5528 35.1982 37.586C35.1077 37.6375 35.0178 37.6911 34.926 37.7434C35.5389 38.4649 36.1232 39.2111 36.6806 39.9797C39.7439 44.2229 41.8756 49.1276 42.6894 54.2816C49.1514 51.4816 54.2727 46.5629 56.7173 40.0054C57.6994 37.3672 58.1791 34.6499 58.2032 31.93Z" fill="#FFCB03"/>
<path fill-rule="evenodd" clip-rule="evenodd" d="M30.5679 81.9732C30.8415 81.8872 31.1141 81.7897 31.3797 81.6956C32.4654 81.3117 33.5346 80.8777 34.586 80.4106C37.9986 78.8925 41.2918 76.9792 44.2671 74.7189C53.0915 68.0171 58.2071 58.9564 58.2071 47.7183V38.5421C58.0328 39.1481 57.8357 39.749 57.6152 40.3411C56.5851 43.1045 55.0753 45.6405 53.1504 47.8713C50.3307 51.1376 46.7621 53.5983 42.8304 55.2619C42.9673 56.3604 43.0438 57.4677 43.0569 58.5809C43.0925 61.8153 42.5796 65.0449 41.517 68.1016C40.0159 72.4147 37.4879 76.2249 34.0921 79.2787C32.9852 80.2753 31.8059 81.1738 30.5679 81.9732Z" fill="#ED1C24"/>
<path fill-rule="evenodd" clip-rule="evenodd" d="M25.9364 56.7524V56.7509L25.954 56.7524C26.3551 56.7649 26.7492 56.798 27.1373 56.8498C32.3269 57.19 37.3467 56.41 41.7835 54.6562C40.8998 48.7567 38.2104 43.0411 34.1011 38.2411C28.0363 41.9743 22.9157 47.1522 19.4312 53.386C17.863 56.189 16.6607 59.1479 15.8442 62.2091C17.8586 58.9314 21.4767 56.7468 25.604 56.7468C25.7152 56.7468 25.8263 56.748 25.9364 56.7524Z" fill="white"/>
<path fill-rule="evenodd" clip-rule="evenodd" d="M24.5913 79.6027C25.1772 79.891 25.7643 80.169 26.3584 80.433C27.3258 80.8655 28.3119 81.2697 29.3094 81.6323C34.4786 78.5134 38.5253 73.79 40.6142 67.7856C41.9928 63.8261 42.3838 59.6948 41.9134 55.6315C40.2731 56.2658 38.5766 56.7649 36.8505 57.1297C34.7733 57.567 32.6634 57.8097 30.5479 57.8686C34.3951 59.7125 37.0527 63.6459 37.0527 68.1979C37.0527 74.5204 31.9259 79.6478 25.6038 79.6478C25.2619 79.6478 24.9249 79.6324 24.5913 79.6027Z" fill="#61BB46"/>
<path fill-rule="evenodd" clip-rule="evenodd" d="M34.1599 22.853C36.4002 21.8811 38.6941 21.051 41.0307 20.3671V13.9009C38.7492 13.5769 36.4527 13.3628 34.1599 13.2555V22.853ZM18.5115 32.9004C20.6584 30.9591 22.9568 29.1846 25.3823 27.5915V13.3379C23.1005 13.4872 20.7987 13.7413 18.5115 14.1068V32.9004ZM2.86383 18.8571V47.7183C2.86383 50.4118 3.15653 52.9834 3.72177 55.4267C4.73674 52.3225 6.0574 49.3228 7.65381 46.4691C8.30453 45.3066 8.99828 44.1699 9.73374 43.0655V16.1559C7.36177 16.8995 5.05758 17.7943 2.86383 18.8571ZM49.8091 18.4867C51.8957 18.1995 53.9995 18.0185 56.1135 17.9487C54.0602 17.0963 51.9526 16.3689 49.8091 15.7558V18.4867Z" fill="#255FAC"/>
<path fill-rule="evenodd" clip-rule="evenodd" d="M26.3358 26.9793C26.9674 26.5813 27.6073 26.1945 28.2553 25.8231C29.8697 24.893 31.522 24.0438 33.2062 23.2775V13.2166C32.3081 13.1871 31.4109 13.1724 30.5164 13.1724C29.137 13.1724 27.7404 13.2066 26.3358 13.2824V26.9793ZM10.6874 41.6773C12.718 38.8268 15.0228 36.1863 17.5588 33.7838V14.269C15.2368 14.6776 12.9345 15.2046 10.6874 15.8658V41.6773ZM41.9842 20.0953C44.2426 19.4731 46.537 18.9832 48.8549 18.6265V15.4929C46.5955 14.8883 44.2992 14.4073 41.9842 14.044V20.0953Z" fill="#ED1C24"/>
<path fill-rule="evenodd" clip-rule="evenodd" d="M10.4609 5.71387V6.70022C10.5071 10.4273 8.96122 13.9037 6.38129 16.4018C13.4431 13.7434 21.6976 12.216 30.5193 12.216C39.2901 12.216 47.5011 13.7264 54.5371 16.3547C51.9425 13.8672 50.3836 10.3939 50.4308 6.65239V5.66755C44.0847 3.68392 37.135 2.86383 30.5193 2.86383C23.8568 2.86383 16.8469 3.69635 10.4609 5.71387Z" fill="white"/>
<path fill-rule="evenodd" clip-rule="evenodd" d="M58.1995 18.8638C32.3813 18.8638 10.6407 35.1008 4.1712 57.1729C5.84519 62.9028 9.07585 67.8984 13.6057 72.1165C13.6057 72.0647 13.6025 72.015 13.6025 71.965C13.6025 49.1 33.5735 30.5583 58.1995 30.5583V18.8638Z" fill="white"/>
<path fill-rule="evenodd" clip-rule="evenodd" d="M27.3432 57.8468L25.584 59.6242L27.4101 62.3025L31.2028 62.839L33.2497 61.0095V61.0091C31.7196 59.4138 29.6198 58.2289 27.3432 57.8468ZM31.9449 63.4543L32.1203 67.5047L34.3683 69.6862L36.034 69.382C36.348 66.7898 35.6741 63.8985 33.8705 61.7351L31.9449 63.4543ZM26.5171 72.9147L28.1045 69.4858L31.5483 68.2935L33.4944 70.2084L31.9958 73.7406L28.3593 75.0039L26.5171 72.9147ZM28.5505 75.9968L31.9939 74.7553L32.8701 75.7294C31.4703 77.2814 29.104 78.3865 26.8442 78.6207L26.4178 77.894L28.5505 75.9968ZM25.7148 78.6946L25.4711 78.2665L21.263 76.9221L20.0167 77.1163C21.5344 78.0904 23.8234 78.7439 25.7148 78.6946ZM21.7387 68.0005L20.5436 70.824L22.3215 73.2876L25.6317 72.4936L27.1246 69.2886L24.9213 67.0358L21.7387 68.0005ZM18.9497 76.3017L18.9287 76.2984C17.8149 75.3797 16.8206 74.2765 15.9731 72.3767L16.6972 70.9395L19.8809 71.4757L21.5711 73.9422L20.844 76.0288L18.9497 76.3017ZM15.5551 71.2373L16.059 70.3302L15.7962 66.8351L15.2358 66.5824C15.1754 67.0178 15.1075 67.5216 15.1075 68.1998C15.1075 68.9742 15.2646 70.275 15.5551 71.2373ZM20.4923 61.3529L18.8023 60.2081C17.1642 61.6012 15.9626 63.4914 15.422 65.6438L15.4266 65.6469L16.295 66.0109L18.8135 64.6557L20.4923 61.3529ZM19.8225 64.8469L21.3803 61.3331L24.804 60.175L26.5571 62.7449L24.6066 66.1911L21.5678 67.0961L19.8225 64.8469Z" fill="white"/>
<path fill-rule="evenodd" clip-rule="evenodd" d="M42.5394 10.1547L39.8869 4.40226L38.6223 4.21585L37.5159 11.5014L38.7614 11.6882L39.5477 6.50912L42.2272 12.2093L43.4692 12.4049L44.575 5.11832L43.3313 4.93258L42.5394 10.1547ZM36.9993 4.12981L36.9109 5.38268L34.3751 5.20286L34.2627 6.78571L36.4464 6.94011L36.3591 8.17651L34.175 8.02174L34.0318 10.0414L36.5683 10.2209L36.479 11.4775L32.6873 11.209L33.2088 3.85989L36.9993 4.12981ZM31.8087 5.12011L28.6035 9.97006H31.8087V11.23H27.169V9.97006L30.3747 5.12011H27.169V3.86131H31.8087V5.12011ZM23.8886 10.2209L26.106 10.026L26.2167 11.2792L22.7456 11.5842L22.0987 4.24523L23.3521 4.13498L23.8886 10.2209ZM19.8921 6.5544C19.7508 5.82328 19.0529 5.89982 18.7789 5.95498L17.786 6.15062L18.0956 7.7249L19.0889 7.53077C19.4175 7.466 20.0349 7.28289 19.8921 6.5544ZM18.335 8.94256C18.5241 9.90133 18.7789 11.2042 18.9684 12.1626C18.575 12.242 18.1278 12.3248 17.7339 12.4057L16.3113 5.17829L17.546 4.93408C18.6933 4.70861 20.7268 4.30812 21.1207 6.31132C21.5499 8.48653 19.8205 8.64987 18.335 8.94256ZM40.7585 5.06645L40.2496 3.95479L41.1112 4.08565L41.5367 5.01495L42.2185 4.25408L43.0859 4.38578L42.2698 5.29597L40.7585 5.06645Z" fill="#231F20"/>
<path fill-rule="evenodd" clip-rule="evenodd" d="M53.7181 25.3928L52.4392 23.0175L51.664 25.6054L53.7181 25.3928ZM48.4522 29.6381L46.9061 21.8168L45.5705 22.0811L47.1162 29.9014L48.4522 29.6381ZM43.1559 27.3246L46.5221 29.9746L44.9842 30.4552L41.6801 27.7765C41.9898 28.7875 42.4107 30.16 42.7203 31.1709C42.3056 31.3015 41.8345 31.4416 41.4188 31.5706L39.0825 23.9494L40.3839 23.5504C41.5939 23.1792 43.7378 22.5221 44.3857 24.6344C45.0342 26.7486 43.3493 27.2209 43.1559 27.3246ZM43.0902 25.032C43.3252 25.801 42.681 26.0654 42.3341 26.1724L41.2866 26.4938L40.778 24.8327L41.8245 24.5113C42.1142 24.4226 42.8552 24.2615 43.0902 25.032ZM34.5238 27.2518C33.1937 27.8545 32.6055 29.4207 33.2083 30.7498C33.811 32.0785 35.3771 32.6691 36.7074 32.0641C38.0368 31.4625 38.6252 29.8959 38.023 28.5672C37.4207 27.2374 35.8527 26.6483 34.5238 27.2518ZM33.9694 26.0282C31.9657 26.9369 31.0765 29.2994 31.9852 31.3055C32.8942 33.309 35.2567 34.1982 37.2608 33.2888C39.2654 32.3808 40.1541 30.0172 39.2459 28.0126C38.3359 26.0073 35.9734 25.1196 33.9694 26.0282ZM30.6534 29.1998L29.4779 29.9349L32.9949 35.5548L31.8386 36.2742L28.3235 30.6575L27.1694 31.3794L26.4575 30.2423L29.9206 28.0751L30.6534 29.1998ZM30.6909 36.9663L25.4497 35.7313L25.7364 30.7212L24.4189 31.7648L24.162 35.8968L22.2501 33.487L21.1748 34.3384L26.1371 40.5776L27.2035 39.7318L24.9961 36.9483L29.3725 38.0114L30.6909 36.9663ZM25.2242 41.3944L19.7131 35.6343L18.7288 36.5761L24.2411 42.3356L25.2242 41.3944ZM22.0065 44.7557L21.1297 45.7991L13.0011 43.0803L13.8771 42.0369L20.1491 44.0831L17.053 38.2578L17.929 37.2171L22.0065 44.7557ZM7.21084 58.1677L8.09806 55.5901L6.83012 55.1532L5.49939 59.019L13.036 61.6146L13.4787 60.3278L10.1211 59.1724L11.0086 56.5925L9.74088 56.1564L8.85328 58.7337L7.21084 58.1677ZM8.89226 50.1403C9.37399 49.1514 10.2117 48.4502 11.1762 48.1181L11.6136 49.3872C10.9741 49.6082 10.419 50.0724 10.0992 50.7284C9.45825 52.0394 10.0052 53.6229 11.3163 54.2624C12.6289 54.902 14.212 54.3566 14.8517 53.0441C15.1703 52.388 15.1942 51.6643 14.9736 51.0259L16.2438 50.5887C16.5759 51.5517 16.5396 52.6436 16.0579 53.6322C15.0935 55.6114 12.7069 56.4326 10.7286 55.4695C8.75029 54.5055 7.92784 52.1174 8.89226 50.1403ZM57.0043 28.6228L55.5398 28.7735L54.4064 26.6689L51.2507 26.9958L50.5656 29.2917L49.0988 29.4435L51.5701 21.1725L52.9149 21.0324L57.0043 28.6228Z" fill="#231F20"/>
</svg>
