<?xml version="1.0" encoding="utf-8"?>
<!-- Generator: Adobe Illustrator 24.1.1, SVG Export Plug-In . SVG Version: 6.00 Build 0)  -->
<svg version="1.1" id="Vrstva_1" xmlns="http://www.w3.org/2000/svg" xmlns:xlink="http://www.w3.org/1999/xlink" x="0px" y="0px"
	 viewBox="0 0 150 150" style="enable-background:new 0 0 150 150;" xml:space="preserve">
<style type="text/css">
	.st0{fill:#FEC800;}
</style>
<g>
	<path class="st0" d="M134.9,15l3.2,4.5c-12.9,9.7-27.2,24.6-42.9,44.7s-27.8,39-36.1,56.5l-6.7,4.5c-5.5,3.8-9.3,6.7-11.3,8.6
		c-0.8-2.8-2.5-7.5-5.1-13.9l-2.5-5.9c-3.6-8.4-7-14.6-10.1-18.7c-3.1-4-6.6-6.7-10.4-8c6.5-6.9,12.4-10.3,17.9-10.3
		c4.6,0,9.8,6.3,15.4,18.9l2.8,6.3c10.2-17.1,23.2-33.8,39.1-50C104.1,36.1,119.7,23.7,134.9,15z"/>
</g>
</svg>
